<?xml version="1.0" encoding="UTF-8" standalone="no"?>
<!-- Created with Inkscape (http://www.inkscape.org/) -->

<svg
   width="120"
   height="120"
   viewBox="0 0 120 120"
   version="1.1"
   id="svg1"
   xmlns:inkscape="http://www.inkscape.org/namespaces/inkscape"
   xmlns:sodipodi="http://sodipodi.sourceforge.net/DTD/sodipodi-0.dtd"
   xmlns="http://www.w3.org/2000/svg"
   xmlns:svg="http://www.w3.org/2000/svg">
  <sodipodi:namedview
     id="namedview1"
     pagecolor="#505050"
     bordercolor="#eeeeee"
     borderopacity="1"
     inkscape:showpageshadow="0"
     inkscape:pageopacity="0"
     inkscape:pagecheckerboard="0"
     inkscape:deskcolor="#505050"
     inkscape:document-units="px" />
  <defs
     id="defs1" />
  <g
     inkscape:label="Layer 1"
     inkscape:groupmode="layer"
     id="layer1">
    <g
       id="g1"
       transform="matrix(1.175355,0,0,1.175355,-14.043074,-7.8585026)">
      <path
         style="font-size:112.006px;font-family:'Oooh Baby';-inkscape-font-specification:'Oooh Baby';text-align:center;letter-spacing:0px;text-orientation:upright;text-anchor:middle;fill:#ffffff;fill-rule:evenodd;stroke-width:3.00017;stroke-linecap:round;stroke-linejoin:round;paint-order:stroke fill markers"
         d="m 21.498119,102.14493 c -1.194731,0 -1.792096,-0.59736 -1.792096,-1.79209 0,-0.821378 0.261347,-2.016109 0.784042,-3.584193 -1.269401,0 -1.904102,-0.56003 -1.904102,-1.68009 0,-1.344072 1.082725,-1.941437 3.248174,-1.792096 2.762815,-6.72036 9.595181,-19.339702 20.497098,-37.858027 2.837485,-4.853593 5.786976,-9.781857 8.848473,-14.784791 3.061497,-5.002935 6.197665,-10.005869 9.408504,-15.008804 -10.08054,2.688144 -14.784792,4.032216 -14.112756,4.032216 -1.19473,0 -1.792095,-0.634701 -1.792095,-1.904102 0,-0.672036 0.410688,-1.194731 1.232065,-1.568084 1.269401,-0.597365 3.36018,-1.306737 6.272336,-2.128114 2.912156,-0.896048 6.645689,-1.904102 11.2006,-3.024162 0.672036,-1.045389 1.269401,-2.016108 1.792096,-2.912156 0.597365,-0.896048 1.157395,-1.68009 1.68009,-2.352126 1.568084,-2.090779 2.834307,-1.464315 3.506343,-1.464315 1.194731,0 1.645933,-1.149158 1.645933,-0.103769 0,0.448024 -0.410689,1.269401 -1.232066,2.464132 -0.821377,1.194731 -1.605419,2.426797 -2.352126,3.696198 l 6.72036,-1.12006 c 2.688143,-0.522695 6.010988,-0.784042 9.968533,-0.784042 14.859463,0 22.289195,3.397515 22.289195,10.192546 0,2.762815 -0.89605,5.338953 -2.68815,7.728414 -1.79209,2.314791 -4.21889,4.442905 -7.280385,6.384342 -2.986827,1.941437 -6.309671,3.696198 -9.968534,5.264281 -3.658863,1.493413 -7.35506,2.80015 -11.088593,3.92021 11.051258,2.538803 16.576887,7.728414 16.576887,15.568834 0,4.106887 -1.232066,7.803085 -3.696198,11.088594 -2.389461,3.285509 -5.562965,6.122994 -9.52051,8.512455 -3.957545,2.389461 -8.325778,4.330899 -13.104701,5.824312 -9.707187,2.986827 -21.019792,4.48024 -33.937817,4.48024 -2.688144,0 -5.450959,-0.112006 -8.288444,-0.336018 -0.746707,1.568084 -1.12006,2.650809 -1.12006,3.248175 0,1.19473 -0.597365,1.79209 -1.792096,1.79209 z m 11.984642,-8.288439 c 11.648623,0 22.065181,-1.344072 31.249673,-4.032216 4.256228,-1.269401 8.251109,-2.986827 11.984642,-5.152276 3.808203,-2.165449 6.8697,-4.704252 9.184491,-7.616407 2.389461,-2.986827 3.584192,-6.197665 3.584192,-9.632516 0,-4.704252 -3.173503,-8.288444 -9.52051,-10.752576 -4.778922,-1.792096 -10.005868,-2.688144 -15.680839,-2.688144 -1.941437,0 -3.808204,0.112006 -5.6003,0.336018 -2.016108,0.522695 -3.136168,0.784042 -3.36018,0.784042 -1.12006,0 -1.68009,-0.634701 -1.68009,-1.904102 0,-1.045389 0.597365,-1.568084 1.792096,-1.568084 7.616408,0 16.31554,-1.717425 26.097397,-5.152276 3.584192,-1.269401 7.056378,-2.762814 10.416558,-4.480239 3.434851,-1.792096 6.235,-3.770869 8.400449,-5.936318 2.24012,-2.24012 3.36018,-4.592246 3.36018,-7.056378 0,-4.48024 -6.197665,-6.72036 -18.592995,-6.72036 -2.912156,0 -5.973653,0.186677 -9.184491,0.56003 -3.136168,0.373353 -6.459013,0.933383 -9.968534,1.68009 -8.885809,13.739403 -16.688894,26.358745 -23.409253,37.858027 -6.72036,11.499283 -12.283325,21.91584 -16.688894,31.249673 0.597365,0.07467 1.344072,0.149341 2.24012,0.224012 z"
         id="text1"
         aria-label="B"
         sodipodi:nodetypes="sscsccsccscccccsssccssccccscscscssscccscscsssccsssccsccs" />
      <rect
         style="fill:none;fill-rule:evenodd;stroke:#ffffff;stroke-width:3.2;stroke-linecap:round;stroke-linejoin:round;stroke-dasharray:none;paint-order:stroke fill markers"
         id="rect1"
         width="86.820953"
         height="86.820953"
         x="19.585871"
         y="14.323996" />
    </g>
  </g>
</svg>
